<svg width="24" height="24" viewBox="0 0 24 24" fill="none" xmlns="http://www.w3.org/2000/svg">
<path d="M14.5766 19.5C14.8102 19.5 15.0002 19.6893 15.0004 19.9229C15.0004 19.9735 14.9911 20.0243 14.9721 20.0713C14.5148 21.1989 13.3568 21.9999 12.0004 22C10.6439 22 9.48513 21.199 9.02776 20.0713C9.00876 20.0243 9.00042 19.9735 9.00042 19.9229C9.00065 19.6893 9.18967 19.5 9.42327 19.5H14.5766ZM12.0004 2C13.2538 2.0002 14.2697 3.01619 14.27 4.26953V4.37402C16.4123 5.10757 17.9985 6.85106 18.2397 8.97559L18.6869 12.915C18.7675 13.6246 19.0666 14.3016 19.5522 14.8721C20.6492 16.1608 19.6052 18 17.7768 18H6.22308C4.39472 18 3.35072 16.1608 4.44768 14.8721C4.93334 14.3015 5.23238 13.6247 5.31292 12.915L5.76019 8.97559C6.00131 6.85113 7.58766 5.10761 9.72991 4.37402V4.26953C9.73014 3.01607 10.7469 2 12.0004 2Z" fill="currentColor"/>
</svg>
