<svg width="24" height="24" viewBox="0 0 24 24" fill="none" xmlns="http://www.w3.org/2000/svg">
<path d="M2.50977 2.74121C2.78103 2.46994 3.22074 2.47023 3.49219 2.74121L7.44922 6.69824C8.79293 5.90428 10.3519 5.31744 12.0361 5.31738C14.179 5.31738 16.1212 6.26585 17.6797 7.39062C19.0484 8.37849 20.1681 9.53595 20.9287 10.418L21.2324 10.7773L21.2383 10.7852L21.3564 10.9463C21.6144 11.3343 21.7489 11.7981 21.749 12.2676C21.749 12.804 21.5727 13.3328 21.2383 13.75L21.2324 13.7578C20.5044 14.6392 19.3111 15.9419 17.8047 17.0527L21.5625 20.8105C21.8339 21.082 21.8339 21.5225 21.5625 21.7939C21.2911 22.0654 20.8505 22.0654 20.5791 21.7939L9.58203 10.7959C9.58121 10.7951 9.57992 10.7948 9.5791 10.7939C9.57796 10.7928 9.5773 10.7912 9.57617 10.79L2.50977 3.72363C2.23879 3.45218 2.2385 3.01248 2.50977 2.74121ZM4.8125 8.68848C5.09449 8.42868 5.53374 8.44596 5.79395 8.72754C6.05407 9.00955 6.03664 9.44967 5.75488 9.70996C4.9925 10.4132 4.36562 11.1129 3.91797 11.6543C3.79177 11.8116 3.71396 12.0302 3.71387 12.2676C3.71387 12.5051 3.79274 12.7235 3.91895 12.8809C4.62934 13.7401 5.77916 14.9887 7.20605 16.0186C8.64295 17.0556 10.3011 17.8281 12.0361 17.8281C12.6763 17.8281 13.3062 17.7227 13.9199 17.5371C14.2871 17.4261 14.6747 17.634 14.7861 18.001C14.8972 18.3684 14.6896 18.757 14.3223 18.8682C13.5951 19.0881 12.8292 19.2178 12.0361 19.2178C9.8933 19.2177 7.95101 18.2703 6.39258 17.1455C4.82855 16.0167 3.59039 14.6653 2.84082 13.7578L2.83496 13.75C2.50031 13.3328 2.32324 12.8041 2.32324 12.2676C2.32334 11.7312 2.5003 11.2023 2.83496 10.7852L2.84082 10.7773C3.31756 10.2002 3.98903 9.44806 4.8125 8.68848ZM12.0361 6.70801C10.7904 6.70806 9.58378 7.1062 8.46777 7.7168L10.1201 9.36914C11.4693 8.47517 13.3044 8.62274 14.4932 9.81152C15.6817 11.0003 15.8283 12.8345 14.9346 14.1836L16.8096 16.0576C18.263 15.0197 19.4353 13.7484 20.1562 12.876C20.2806 12.7189 20.3594 12.5031 20.3594 12.2676C20.3593 12.032 20.2807 11.8162 20.1562 11.6592C19.4461 10.7998 18.2952 9.54894 16.8662 8.51758C15.4293 7.48053 13.7712 6.70801 12.0361 6.70801ZM13.5107 10.7939C12.8689 10.1522 11.9138 10.0177 11.1387 10.3877L13.916 13.1641C14.2855 12.3893 14.1521 11.4355 13.5107 10.7939Z" fill="currentColor"/>
</svg>
