<svg width="24" height="24" viewBox="0 0 24 24" fill="none" xmlns="http://www.w3.org/2000/svg">
<path fill-rule="evenodd" clip-rule="evenodd" d="M11.4697 4.46967C11.7626 4.17678 12.2374 4.17678 12.5303 4.46967L18.5303 10.4697C18.8232 10.7626 18.8232 11.2374 18.5303 11.5303C18.2374 11.8232 17.7626 11.8232 17.4697 11.5303L12 6.06066L6.53033 11.5303C6.23744 11.8232 5.76256 11.8232 5.46967 11.5303C5.17678 11.2374 5.17678 10.7626 5.46967 10.4697L11.4697 4.46967Z" fill="currentColor"/>
<path fill-rule="evenodd" clip-rule="evenodd" d="M11.4697 12.4697C11.7626 12.1768 12.2374 12.1768 12.5303 12.4697L18.5303 18.4697C18.8232 18.7626 18.8232 19.2374 18.5303 19.5303C18.2374 19.8232 17.7626 19.8232 17.4697 19.5303L12 14.0607L6.53033 19.5303C6.23744 19.8232 5.76256 19.8232 5.46967 19.5303C5.17678 19.2374 5.17678 18.7626 5.46967 18.4697L11.4697 12.4697Z" fill="currentColor"/>
</svg>
